<!--?xml version="1.0" encoding="utf-8"?-->
<!-- Generator: Adobe Illustrator 18.1.1, SVG Export Plug-In . SVG Version: 6.00 Build 0)  -->

<svg version="1.1" id="_x32_" xmlns="http://www.w3.org/2000/svg" xmlns:xlink="http://www.w3.org/1999/xlink" x="0px" y="0px" viewBox="0 0 512 512" style="width: 256px; height: 256px; opacity: 1;" xml:space="preserve">
<g>
	<path class="st0" d="M512,420.268v-32.001H0v32.001h48.509v37.594H0v32h512v-32h-47.486v-37.594H512z M136.51,420.268h76.001
		v37.594H136.51V420.268z M376.513,457.862h-76.001v-37.594h76.001V457.862z"></path>
	<polygon class="st0" points="239.734,206.14 183.733,206.14 183.733,267.476 154.405,248.992 125.061,267.476 125.061,206.14 
		69.06,206.14 69.06,360.814 239.734,360.814 	"></polygon>
	<polygon class="st0" points="328.266,206.14 272.266,206.14 272.266,360.814 442.94,360.814 442.94,206.14 386.939,206.14 
		386.939,267.476 357.611,248.992 328.266,267.476 	"></polygon>
	<polygon class="st0" points="341.337,22.137 285.336,22.137 285.336,83.474 256.008,64.99 226.664,83.474 226.664,22.137 
		170.662,22.137 170.662,176.811 341.337,176.811 	"></polygon>
</g>
</svg>
